<svg width="599" height="520" viewBox="0 0 599 520" fill="none" xmlns="http://www.w3.org/2000/svg">
<g clip-path="url(#clip0_3_56)">
<path d="M554.029 481.345L570.148 476.232C572.157 467.581 572.023 458.571 569.76 449.983C563.284 464.382 544.285 467.91 533.46 479.402C530.111 483.013 527.618 487.33 526.164 492.035C524.711 496.74 524.335 501.712 525.065 506.582L521.673 518.086C529.594 517.409 537.273 515.023 544.183 511.093C551.093 507.162 557.068 501.781 561.697 495.318C564.259 491.668 566.35 487.709 567.922 483.535C561.048 482.847 554.029 481.345 554.029 481.345Z" fill="#1FBC2F"/>
<path d="M536.805 460.072L548.952 448.307C546.892 439.668 542.754 431.663 536.898 424.986C537.523 440.762 522.092 452.392 517.528 467.506C516.141 472.231 515.835 477.208 516.632 482.067C517.43 486.926 519.311 491.544 522.136 495.577L524.231 507.386C531.018 503.248 536.828 497.688 541.259 491.088C545.691 484.489 548.639 477.007 549.9 469.159C550.564 464.749 550.67 460.272 550.216 455.836C543.757 458.286 536.805 460.072 536.805 460.072Z" fill="#1FBC2F"/>
<path d="M456.06 34.4843H1.76721C1.2947 34.4743 0.844919 34.2795 0.514282 33.9418C0.183645 33.6041 -0.00152588 33.1503 -0.00152588 32.6777C-0.00152588 32.2051 0.183645 31.7513 0.514282 31.4135C0.844919 31.0758 1.2947 30.8811 1.76721 30.8711H456.06C456.533 30.8811 456.983 31.0758 457.313 31.4135C457.644 31.7513 457.829 32.2051 457.829 32.6777C457.829 33.1503 457.644 33.6041 457.313 33.9418C456.983 34.2795 456.533 34.4743 456.06 34.4843V34.4843Z" fill="#3F3D56"/>
<path d="M32.6915 21.6469C38.5388 21.6469 43.279 16.8011 43.279 10.8235C43.279 4.84582 38.5388 0 32.6915 0C26.8442 0 22.104 4.84582 22.104 10.8235C22.104 16.8011 26.8442 21.6469 32.6915 21.6469Z" fill="#FF5F56"/>
<path d="M69.2665 21.6469C75.1138 21.6469 79.854 16.8011 79.854 10.8235C79.854 4.84582 75.1138 0 69.2665 0C63.4192 0 58.679 4.84582 58.679 10.8235C58.679 16.8011 63.4192 21.6469 69.2665 21.6469Z" fill="#FFBD2E"/>
<path d="M105.842 21.6469C111.689 21.6469 116.429 16.8011 116.429 10.8235C116.429 4.84582 111.689 0 105.842 0C99.9942 0 95.2541 4.84582 95.2541 10.8235C95.2541 16.8011 99.9942 21.6469 105.842 21.6469Z" fill="#27C93F"/>
<path d="M434.039 2.68262H408.058C407.543 2.69287 407.053 2.90464 406.692 3.27245C406.331 3.64026 406.13 4.13478 406.13 4.64984C406.13 5.1649 406.331 5.65943 406.692 6.02724C407.053 6.39505 407.543 6.60681 408.058 6.61707H434.039C434.554 6.60681 435.044 6.39505 435.405 6.02724C435.765 5.65943 435.967 5.1649 435.967 4.64984C435.967 4.13478 435.765 3.64026 435.405 3.27245C435.044 2.90464 434.554 2.69287 434.039 2.68262V2.68262Z" fill="#3F3D56"/>
<path d="M434.039 10.0674H408.058C407.543 10.0776 407.053 10.2893 406.692 10.6571C406.331 11.025 406.129 11.5195 406.129 12.0346C406.129 12.5497 406.331 13.0443 406.692 13.4121C407.053 13.7799 407.543 13.9916 408.058 14.0018H434.039C434.554 13.9916 435.044 13.7799 435.405 13.4121C435.766 13.0443 435.968 12.5497 435.968 12.0346C435.968 11.5195 435.766 11.025 435.405 10.6571C435.044 10.2893 434.554 10.0776 434.039 10.0674V10.0674Z" fill="#3F3D56"/>
<path d="M434.039 17.4414H408.058C407.543 17.4516 407.053 17.6633 406.692 18.0311C406.331 18.399 406.129 18.8935 406.129 19.4086C406.129 19.9237 406.331 20.4183 406.692 20.7861C407.053 21.1539 407.543 21.3657 408.058 21.3759H434.039C434.554 21.3657 435.044 21.1539 435.405 20.7861C435.766 20.4183 435.968 19.9237 435.968 19.4086C435.968 18.8935 435.766 18.399 435.405 18.0311C435.044 17.6633 434.554 17.4516 434.039 17.4414V17.4414Z" fill="#3F3D56"/>
<path d="M35.1934 107.885C42.4224 107.885 48.2827 102.024 48.2827 94.7954C48.2827 87.5664 42.4224 81.7061 35.1934 81.7061C27.9643 81.7061 22.104 87.5664 22.104 94.7954C22.104 102.024 27.9643 107.885 35.1934 107.885Z" fill="#E6E7E8"/>
<path d="M368.516 123.78H26.002C24.9682 123.78 23.9768 123.369 23.2458 122.638C22.5148 121.907 22.1042 120.916 22.1042 119.882C22.1042 118.848 22.5148 117.857 23.2458 117.126C23.9768 116.395 24.9682 115.984 26.002 115.984H368.516C369.55 115.984 370.541 116.395 371.272 117.126C372.003 117.857 372.414 118.848 372.414 119.882C372.414 120.916 372.003 121.907 371.272 122.638C370.541 123.369 369.55 123.78 368.516 123.78V123.78Z" fill="#E6E7E8"/>
<path d="M278.686 139.182H26.002C24.9682 139.182 23.9767 138.771 23.2457 138.04C22.5147 137.309 22.104 136.317 22.104 135.284C22.104 134.25 22.5147 133.258 23.2457 132.527C23.9767 131.796 24.9682 131.386 26.002 131.386H278.686C279.719 131.386 280.711 131.796 281.442 132.527C282.173 133.258 282.584 134.25 282.584 135.284C282.584 136.317 282.173 137.309 281.442 138.04C280.711 138.771 279.719 139.182 278.686 139.182V139.182Z" fill="#E6E7E8"/>
<path d="M35.1934 312.189C42.4224 312.189 48.2827 306.329 48.2827 299.1C48.2827 291.871 42.4224 286.011 35.1934 286.011C27.9643 286.011 22.104 291.871 22.104 299.1C22.104 306.329 27.9643 312.189 35.1934 312.189Z" fill="#E6E7E8"/>
<path d="M368.516 328.085H26.002C25.4896 328.085 24.982 327.985 24.5084 327.79C24.0348 327.594 23.6044 327.307 23.2418 326.945C22.8792 326.583 22.5915 326.153 22.3953 325.68C22.199 325.207 22.098 324.699 22.098 324.187C22.098 323.674 22.199 323.167 22.3953 322.694C22.5915 322.22 22.8792 321.79 23.2418 321.428C23.6044 321.066 24.0348 320.779 24.5084 320.584C24.982 320.388 25.4896 320.288 26.002 320.289H368.516C369.602 320.35 370.626 320.814 371.387 321.591C372.148 322.367 372.592 323.401 372.63 324.487C372.598 324.995 372.466 325.49 372.242 325.946C372.017 326.402 371.705 326.808 371.322 327.143C370.94 327.477 370.495 327.733 370.013 327.894C369.532 328.056 369.023 328.12 368.516 328.085V328.085Z" fill="#E6E7E8"/>
<path d="M278.686 343.486H26.002C24.9682 343.486 23.9767 343.076 23.2457 342.345C22.5147 341.614 22.104 340.622 22.104 339.588C22.104 338.555 22.5147 337.563 23.2457 336.832C23.9767 336.101 24.9682 335.69 26.002 335.69H278.686C279.719 335.69 280.711 336.101 281.442 336.832C282.173 337.563 282.584 338.555 282.584 339.588C282.584 340.622 282.173 341.614 281.442 342.345C280.711 343.076 279.719 343.486 278.686 343.486V343.486Z" fill="#E6E7E8"/>
<path d="M35.1934 202.336C42.4224 202.336 48.2827 196.476 48.2827 189.247C48.2827 182.018 42.4224 176.157 35.1934 176.157C27.9643 176.157 22.104 182.018 22.104 189.247C22.104 196.476 27.9643 202.336 35.1934 202.336Z" fill="#E6E7E8"/>
<path d="M368.516 218.231H26.002C24.9682 218.231 23.9768 217.82 23.2458 217.089C22.5148 216.358 22.1042 215.367 22.1042 214.333C22.1042 213.3 22.5148 212.308 23.2458 211.577C23.9768 210.846 24.9682 210.436 26.002 210.436H368.516C369.55 210.436 370.541 210.846 371.272 211.577C372.003 212.308 372.414 213.3 372.414 214.333C372.414 215.367 372.003 216.358 371.272 217.089C370.541 217.82 369.55 218.231 368.516 218.231V218.231Z" fill="#E6E7E8"/>
<path d="M320.818 233.633H26.002C24.9682 233.633 23.9767 233.222 23.2457 232.491C22.5147 231.76 22.104 230.769 22.104 229.735C22.104 228.701 22.5147 227.71 23.2457 226.979C23.9767 226.248 24.9682 225.837 26.002 225.837H320.818C321.852 225.837 322.844 226.248 323.575 226.979C324.306 227.71 324.716 228.701 324.716 229.735C324.716 230.769 324.306 231.76 323.575 232.491C322.844 233.222 321.852 233.633 320.818 233.633V233.633Z" fill="#E6E7E8"/>
<path d="M300.808 249.035H26.002C24.9682 249.035 23.9767 248.624 23.2457 247.893C22.5147 247.162 22.104 246.171 22.104 245.137C22.104 244.103 22.5147 243.112 23.2457 242.381C23.9767 241.65 24.9682 241.239 26.002 241.239H300.808C301.842 241.239 302.834 241.65 303.565 242.381C304.296 243.112 304.706 244.103 304.706 245.137C304.706 246.171 304.296 247.162 303.565 247.893C302.834 248.624 301.842 249.035 300.808 249.035V249.035Z" fill="#E6E7E8"/>
<path d="M306.495 421.355C360.03 421.355 403.428 377.956 403.428 324.421C403.428 270.886 360.03 227.487 306.495 227.487C252.96 227.487 209.561 270.886 209.561 324.421C209.561 377.956 252.96 421.355 306.495 421.355Z" fill="#6C63FF"/>
<path d="M306.361 358.241C314.009 358.241 320.209 352.041 320.209 344.394C320.209 336.746 314.009 330.546 306.361 330.546C298.714 330.546 292.514 336.746 292.514 344.394C292.514 352.041 298.714 358.241 306.361 358.241Z" fill="#3F3D56"/>
<path d="M306.361 350.784C309.891 350.784 312.753 347.923 312.753 344.393C312.753 340.863 309.891 338.002 306.361 338.002C302.832 338.002 299.97 340.863 299.97 344.393C299.97 347.923 302.832 350.784 306.361 350.784Z" fill="#6C63FF"/>
<path d="M332.067 375.219H280.923C275.859 375.213 271.003 373.199 267.422 369.618C263.841 366.037 261.827 361.182 261.821 356.118V332.669C261.827 327.605 263.841 322.749 267.422 319.168C271.003 315.588 275.859 313.573 280.923 313.567H332.067C337.131 313.573 341.986 315.588 345.567 319.169C349.148 322.75 351.162 327.605 351.168 332.669V356.118C351.162 361.182 349.148 366.037 345.567 369.618C341.986 373.199 337.131 375.213 332.067 375.219V375.219ZM280.923 315.567C276.389 315.573 272.042 317.376 268.836 320.582C265.63 323.788 263.826 328.135 263.821 332.669V356.118C263.826 360.652 265.63 364.999 268.836 368.205C272.042 371.411 276.389 373.214 280.923 373.219H332.067C336.601 373.214 340.947 371.411 344.153 368.205C347.359 364.999 349.163 360.652 349.168 356.118V332.669C349.163 328.135 347.359 323.788 344.153 320.582C340.947 317.376 336.601 315.573 332.067 315.567L280.923 315.567Z" fill="white"/>
<path d="M277.894 362.49H323.289C325.645 362.49 327.979 362.026 330.155 361.124C332.332 360.223 334.31 358.901 335.976 357.235C337.643 355.569 338.964 353.591 339.866 351.414C340.768 349.237 341.232 346.904 341.232 344.547V324.924C341.228 322.748 340.827 320.591 340.048 318.559C342.263 320.226 344.06 322.386 345.297 324.866C346.535 327.347 347.179 330.081 347.179 332.854V352.477C347.179 354.834 346.715 357.167 345.813 359.344C344.912 361.52 343.59 363.498 341.924 365.165C340.258 366.831 338.28 368.152 336.103 369.054C333.926 369.956 331.593 370.42 329.237 370.42H283.841C280.203 370.418 276.652 369.309 273.658 367.242C270.665 365.174 268.371 362.244 267.082 358.843C270.189 361.209 273.988 362.491 277.894 362.49Z" fill="#3F3D56"/>
<path d="M416.909 506.542L405.755 506.541L400.448 463.514L416.912 463.515L416.909 506.542Z" fill="#A0616A"/>
<path d="M417.303 518.179L383 518.177V517.744C383 514.203 384.407 510.807 386.911 508.303C389.414 505.799 392.81 504.392 396.351 504.392H396.352L402.618 499.639L414.309 504.393L417.303 504.393L417.303 518.179Z" fill="#2F2E41"/>
<path d="M495.838 506.542L506.993 506.541L512.3 463.514L495.836 463.515L495.838 506.542Z" fill="#A0616A"/>
<path d="M495.445 518.179L529.748 518.177V517.744C529.748 514.203 528.341 510.807 525.837 508.303C523.333 505.799 519.937 504.392 516.396 504.392H516.396L510.13 499.639L498.439 504.393L495.445 504.393L495.445 518.179Z" fill="#2F2E41"/>
<path d="M399.957 431.897C400.122 429.441 401.432 415.864 401.432 415.864L404.569 387.069L410.099 310.741L410.46 305.745L439.427 300.183L459.225 290.692L482.756 298.215L501.079 305.086C501.079 305.086 501.111 308.027 501.252 311.58C501.44 316.232 501.77 321.934 502.554 323.417C503.864 326.037 503.535 340.101 503.535 340.101C503.535 340.101 504.837 368.715 506.476 371.852C508.115 374.99 508.445 381.524 507.951 382.834C507.456 384.143 509.59 418.507 509.59 418.507C509.59 418.507 515.066 479.318 511.63 488.488C508.195 497.657 495.212 491.651 495.212 491.651C495.212 491.651 495.84 489.203 492.075 488.05C488.31 486.897 476.842 400.67 476.842 400.67C476.842 400.67 474.709 382.99 472.748 377.923C470.787 372.856 468.983 358.62 468.983 358.62C468.983 358.62 456.872 335.057 456.715 329.817C456.715 329.817 455.13 324.915 453.632 330.311C452.134 335.708 447.718 348.634 447.718 348.634L443.412 364.51L438.345 388.23L435.066 408.2C435.066 408.2 430.156 434.705 429.371 435.85C428.587 436.995 429.371 461.209 429.371 461.209C429.371 461.209 425.575 481.83 420.21 485.43C414.845 489.031 400.63 485.488 400.63 485.488C400.63 485.488 399.792 434.352 399.957 431.897Z" fill="#DE179A"/>
<path d="M412.315 236.13L418.755 255.528L410.809 264.987L414.308 268.588L411.727 273.678L404.997 327.032L441.894 341.025L454.319 325.447L464.116 341.025L506.81 330.593L495.922 262.556V258.108L492.848 249.519V231.337L500.966 177.215L476.736 168.728L465.151 159.559L461.402 172.454L445.44 169.615L445.024 159.927L432.811 171.466L422.527 174.399L410.213 177.215L408.644 181.137L411.781 180.353L411.272 231.377L412.315 236.13Z" fill="#DE179A"/>
<path d="M401.286 307.104L407.483 247.123L409.119 222.436L391.774 219.3C391.774 219.3 392.461 236.951 390.189 246.911C387.947 256.738 389.892 305.788 390.03 307.099C388.756 308.238 387.858 309.737 387.455 311.398C387.052 313.058 387.162 314.802 387.771 316.398C388.38 317.995 389.46 319.369 390.867 320.338C392.274 321.308 393.942 321.827 395.651 321.828C397.36 321.829 399.029 321.311 400.437 320.343C401.845 319.375 402.926 318.002 403.536 316.406C404.147 314.81 404.259 313.066 403.857 311.405C403.456 309.744 402.559 308.245 401.286 307.104V307.104Z" fill="#A0616A"/>
<path d="M384.368 259.552L389.192 260.548L405.742 263.976L406.66 264.164L408.613 256.399L410.88 253.983L415.194 231.377L415.421 230.2L421.94 216.27L426.449 174.399L409.679 177.411C409.593 177.498 409.515 177.592 409.436 177.686C407.028 180.416 405.31 184.212 402.502 188.032C393.364 200.464 386.352 230.671 386.627 247.221C386.635 247.488 386.36 247.778 386.031 248.076C384.476 249.506 383.461 251.428 383.158 253.518C382.855 255.609 383.282 257.74 384.368 259.552Z" fill="#DE179A"/>
<path d="M509.108 307.104L502.911 247.123L501.276 222.436L518.621 219.3C518.621 219.3 517.933 236.951 520.206 246.911C522.448 256.738 520.503 305.788 520.364 307.099C521.638 308.238 522.536 309.737 522.94 311.398C523.343 313.058 523.233 314.802 522.623 316.398C522.014 317.995 520.935 319.369 519.528 320.338C518.12 321.308 516.452 321.827 514.743 321.828C513.035 321.829 511.366 321.311 509.958 320.343C508.55 319.375 507.469 318.002 506.858 316.406C506.247 314.81 506.135 313.066 506.537 311.405C506.939 309.744 507.836 308.245 509.108 307.104V307.104Z" fill="#A0616A"/>
<path d="M526.027 259.552L521.203 260.548L504.652 263.976L503.735 264.164L501.782 256.399L499.515 253.983L495.201 231.377L494.973 230.2L488.455 216.27L489.945 174.399L500.715 177.411C500.802 177.498 500.88 177.592 500.958 177.686C503.367 180.416 505.084 184.212 507.892 188.032C517.03 200.464 524.042 230.671 523.768 247.221C523.76 247.488 524.035 247.778 524.364 248.076C525.919 249.506 526.934 251.428 527.237 253.518C527.539 255.609 527.112 257.74 526.027 259.552V259.552Z" fill="#DE179A"/>
<path d="M437.144 180.594L445.024 159.927L465.151 159.559L471.83 180.594L495.836 314.698C495.836 314.698 422.292 335.178 423.038 310.56C423.822 284.675 427.361 250.292 427.361 250.292L437.144 180.594Z" fill="#6C63FF"/>
<path d="M454.637 154.147C467.732 154.147 478.347 143.531 478.347 130.437C478.347 117.342 467.732 106.727 454.637 106.727C441.543 106.727 430.927 117.342 430.927 130.437C430.927 143.531 441.543 154.147 454.637 154.147Z" fill="#A0616A"/>
<path d="M429.529 113.237C433.389 109.035 438.218 101.345 452.842 98.1152C470.912 94.1247 479.451 110.449 474.894 110.716C488.219 114.752 479.659 142.327 475.839 140.014C475.806 139.991 475.775 139.967 475.745 139.941C473.69 138.428 471.966 136.512 470.677 134.31C469.387 132.108 468.561 129.666 468.247 127.134L467.522 120.609C467.419 125.918 461.992 126.62 456.448 124.665C456.776 123.501 457.402 122.442 458.263 121.594C459.125 120.745 460.193 120.136 461.362 119.827C457.497 123.33 452.588 125.466 447.39 125.906C447.663 124.576 448.216 123.321 449.014 122.223C449.812 121.125 450.835 120.211 452.016 119.542L451.797 119.327C449.632 121.152 447.146 122.56 444.467 123.477C441.411 124.353 437.749 123.879 435.655 121.487C435.091 120.827 434.665 120.06 434.403 119.233C434.855 123.437 432.035 128.237 429.844 127.413C428.022 127.059 426.96 116.034 429.529 113.237Z" fill="#2F2E41"/>
<path d="M598.383 518.175C598.383 518.332 598.353 518.487 598.293 518.631C598.233 518.776 598.146 518.907 598.035 519.018C597.924 519.128 597.793 519.216 597.648 519.276C597.504 519.335 597.349 519.366 597.193 519.365H316.903C316.587 519.365 316.284 519.24 316.061 519.017C315.838 518.794 315.713 518.491 315.713 518.175C315.713 517.86 315.838 517.557 316.061 517.334C316.284 517.111 316.587 516.985 316.903 516.985H597.193C597.349 516.985 597.504 517.015 597.648 517.075C597.793 517.135 597.924 517.222 598.035 517.333C598.146 517.443 598.233 517.575 598.293 517.719C598.353 517.864 598.383 518.019 598.383 518.175Z" fill="#CCCCCC"/>
<path d="M307.282 271.862C297.801 271.862 289.467 276.154 284.749 282.597C289.793 278.926 295.883 276.972 302.122 277.023C316.803 277.023 328.748 287.307 328.748 299.948V310.456H333.908V294.788C333.908 282.147 321.963 271.862 307.282 271.862Z" fill="#3F3D56"/>
<path d="M337.453 315.834H275.536V297.616C275.536 282.918 289.424 270.96 306.495 270.96C323.565 270.96 337.453 282.918 337.453 297.616V315.834ZM277.536 313.834H335.453V297.616C335.453 284.021 322.463 272.96 306.495 272.96C290.526 272.96 277.536 284.021 277.536 297.616V313.834Z" fill="white"/>
<path d="M322.352 308.879H290.637C289.21 308.877 287.842 308.31 286.834 307.301C285.825 306.292 285.257 304.924 285.256 303.497V296.247C285.256 286.139 294.784 277.915 306.495 277.915C318.205 277.915 327.733 286.139 327.733 296.247V303.497C327.732 304.924 327.164 306.292 326.155 307.301C325.147 308.31 323.779 308.877 322.352 308.879V308.879ZM306.495 279.915C295.886 279.915 287.256 287.241 287.256 296.247V303.497C287.257 304.394 287.613 305.253 288.247 305.887C288.881 306.521 289.741 306.878 290.637 306.879H322.352C323.248 306.878 324.108 306.521 324.742 305.887C325.376 305.253 325.732 304.394 325.733 303.497V296.247C325.733 287.241 317.103 279.915 306.495 279.915Z" fill="white"/>
</g>
<defs>
<clipPath id="clip0_3_56">
<rect width="598.383" height="519.366" fill="white"/>
</clipPath>
</defs>
</svg>
